<?xml version="1.0" encoding="utf-8"?>
<!-- Generator: Adobe Illustrator 24.1.2, SVG Export Plug-In . SVG Version: 6.00 Build 0)  -->
<svg version="1.1" id="Layer_1" xmlns="http://www.w3.org/2000/svg" xmlns:xlink="http://www.w3.org/1999/xlink" x="0px" y="0px"
	 viewBox="0 0 2500 745" style="enable-background:new 0 0 2500 745;" xml:space="preserve">
<style type="text/css">
	.st0{fill:#FFFFFF;}
</style>
<path class="st0" d="M1012,738.6c-9.1-16.9,12.4-72.6,55.4-143.9c28-45.9,74.6-111.7,102.6-144.6c18.9-22.1,31.9-51.1,30.3-67.4
	l-1-10.1l-10.4,10.7c-5.5,5.9-28,33.2-49.5,60.6c-26,33.2-42.3,51.1-49.2,54.1c-13.3,5.5-40.7,2.6-51.4-5.5
	c-17.6-13-17.3-49.8,1.3-104.2c5.9-17.9,11.1-34.2,11.1-35.5c0-4.2-21.5,17.6-58.9,59.9c-19.5,21.8-35.5,41.7-35.5,44
	s-6.5,11.1-14.7,19.9c-14,15.3-14.7,15.6-28.3,13.7c-29.6-4.9-36.8-16.6-33.9-55.7c2.9-40.4,16-91.2,37.4-145.9
	c32.6-81.4,25.7-88.2-25.7-25.1c-18.2,22.1-38.7,48.5-45.6,58.6c-18.2,26-70.7,90.5-114.6,141c-55.4,63.5-73.3,68.4-120.5,32.6
	c-23.1-17.9-31.9-37.4-31.9-71.3c0-15-1.3-27.7-2.9-28.7c-1.6-1-9.1,3.3-16.6,9.4c-7.5,6.2-15,11.4-16.6,11.4
	c-1.3,0-15,8.1-29.6,18.2c-27,18.6-94.1,53.4-102.2,53.4c-2.6,0-19.2,5.2-37.1,11.4c-17.9,6.2-49.8,15-71,19.5
	c-48.8,10.7-118.5,26.7-137.4,31.6c-7.8,2.3-17.9,7.5-22.1,12l-7.5,8.1l-4.9-7.2c-3.9-5.5-6.8-6.5-15.3-4.9l-10.4,1.6l11.1-9.4
	l11.1-9.4l-4.2-34.8c-2.6-22.1-3.3-46.9-2-68.1c1.3-18.6,3.6-53.4,5.2-77.5s4.2-49.2,6.2-55.4c2-6.2,3.6-16.6,3.6-22.8
	c0-16.6,18.6-124.4,26.4-152.7c3.6-13.3,5.9-26,4.9-28.7c-2.6-6.2-30.3-5.2-46.2,2c-18.6,8.5-58.3,17.3-68.1,14.7
	C38.7,114.8,2.9,65.3,0.3,45.4c-1-6.5,0.7-18.2,3.3-26.4C8.1,5.7,9.4,4.7,22.5,2.4c7.8-1,78.1-2.3,156-2.3
	c173.2-0.3,215.9,3.9,245.5,24.1c6.8,4.6,18.2,11.4,25.7,15c35.5,18.2,57.3,40,64.1,64.1c6.8,25.4-12,54.7-50.1,76.8
	c-12,6.8-21.2,14.3-20.5,16.3c0.7,2,8.1,4.6,16.3,5.9c59.3,8.5,106.5,42.3,129.3,92.8c5.2,11.4,10.7,20.5,12.7,20.5
	s8.1-9.1,13.7-19.9c12-24.4,42-71.3,57.3-89.5c5.9-7.5,16.6-17.6,23.4-22.5c12-8.1,13.3-8.5,22.1-3.9c25.1,13.3,75.9,70.3,75.9,85.6
	c0,26-18.9,42.3-97.4,85.6c-15.3,8.5-30.3,18.9-33.5,23.4c-3.9,5.2-7.5,18.6-9.8,38.1c-3.3,26.7-2.9,30.9,1.6,35.5
	c4.9,4.9,6.2,4.6,16-2.9c22.8-17.9,159.9-157.3,192.1-195.4l33.5-40v-51.8l11.1-2.6c8.5-2.3,13.7-1.6,26,4.6
	c13.3,6.8,15.6,9.4,21.8,27c3.6,10.7,11.1,27.7,16.6,37.4c15.3,27.4,16,33.9,4.6,73.6c-12,41.7-16,67.7-10.4,71.3
	c2.3,1.3,11.1-3.6,20.8-11.1c26-20.5,76.8-61.2,110.4-88.6c35.2-28.7,97-71,121.5-83c16.6-7.8,17.6-8.1,29.6-2.9
	c14,5.9,40.4,30,50.5,46.2c5.9,9.4,6.2,12.4,2.6,30.3c-5.9,29.6-13.3,34.2-42.7,25.4c-14-4.2-20.5-12.4-17.3-22.1
	c2.9-9.1-1-19.5-7.2-19.5c-12.4,0-63.2,45.3-90.2,80.8c-25.1,32.9-45.6,85.3-33.5,85.3c2.6,0,18.6-12.7,35.2-28
	c31.6-29,72.9-58.6,86.9-62.2c4.6-1,15.6,0.7,25.1,3.6c9.1,2.9,18.9,5.2,21.5,5.2c4.9,0,56-51.1,89.9-89.2
	c16.3-18.6,17.3-18.9,29.3-16.9c6.8,1.3,18.9,6.2,27,11.4c16.6,10.1,16.3,8.5,11.4,72.9c-1.6,18.2-1.3,31.6,0.3,31.6
	c1.6-0.3,13.3-12,25.7-26.7c36.8-43.3,64.5-71.6,72.9-74.6c17.9-7.2,42,10.1,44.9,32.2c1.6,13-4.9,46.9-14.3,70.7
	c-7.8,20.8-23.8,77.5-23.8,85.6c0,3.9,1.6,7.2,3.9,7.2c7.2,0,93.8-91.5,121.1-128.3c38.4-50.5,83-103.9,90.2-107.4
	c10.7-5.2,30,11.4,52.4,44.3c23.1,34.8,30,50.8,25.7,62.2c-3.6,9.1-20.8,24.7-36.1,32.2c-18.9,9.4-62.8,27.7-75.9,31.9
	c-15.3,4.9-25.4,19.2-34.5,50.1c-7.8,25.4-8.8,37.8-2.6,37.8c8.1,0,52.7-37.4,114.6-96.4c72.3-68.7,117.2-119.5,114-129.9
	c-4.6-14.3-5.5-36.8-2-43.6c3.3-5.5,6.8-6.8,20.2-6.8c19.9,0,30,8.5,33.5,28c1.6,6.8,7.5,21.5,13.7,32.6
	c17.6,31.6,17.9,54.4,1,116.9c-8.1,30.3-8.1,44,0,44c3.6,0,9.1-3.3,12.4-7.5c3.3-3.9,32.2-32.2,64.1-62.5
	c90.8-86,114.9-110.7,118.8-123.1c6.2-18.6,24.1-23.1,45.9-12c24.1,12.4,26.7,22.5,16.3,63.2c-3.6,14-7.5,36.8-8.5,50.8
	c-2,24.1-2,25.4,5.2,27.7c4.2,1.3,12.7,0,20.5-2.9c35.5-13.3,165.1-45.3,207.1-50.8c28.7-3.9,44.6-3.3,31.3,1.6
	c-3.6,1.3-13.7,5.5-22.8,9.8c-8.8,3.9-19.2,8.1-22.8,9.1c-3.6,1-18.9,6.2-34.2,11.7c-15.3,5.5-29.6,9.4-31.9,8.5
	c-7.2-2.6-29.6,5.9-30.9,12c-1.3,4.2-4.9,5.9-13.3,5.9c-7.5,0-12.7,1.6-13.7,4.9c-1.3,2.6-4.6,4.9-7.5,4.9s-12.7,5.2-21.5,11.7
	c-9.1,6.5-22.5,14.3-29.6,17.6c-20.2,8.8-39.7,21.8-44.9,30c-2.6,4.2-7.2,25.4-9.8,47.5c-6.8,54.4-20.5,84.3-44.3,96.7
	c-13,6.8-43.3,9.4-56.7,4.9c-14.3-4.6-21.5-17.3-29-50.8c-4.2-18.9-8.5-27.7-23.1-47.2c-10.1-13.3-18.2-26.4-18.2-29.3
	c0-3.6,17.3-14,54.1-32.6c29.6-15,54.7-28.3,55.7-30c4.9-7.8,12.7-93.4,8.5-93.4c-3.9,0-76.8,80.1-105.2,115.6
	c-66.4,82.7-105.5,125.4-114.9,125.4c-8.5-0.3-30.9-12.7-37.4-21.2c-9.1-11.4-9.1-26-0.7-66.7c3.9-16.9,8.8-42.3,11.4-56.7
	c2.6-14,9.1-41.7,15-61.2c6.8-24.7,9.1-36.8,6.5-39.4c-4.9-4.9-39.4,29.6-90.5,90.5c-63.8,75.9-133.8,151.1-142.3,153.4
	c-12.7,2.9-34.8-5.2-54.4-20.2c-23.8-18.2-30-32.6-28.3-66.1c0.7-16.6-0.3-24.7-2.9-25.4c-5.5-2-36.1,36.5-56.3,71
	c-9.8,16.6-24.4,37.1-32.6,46.2c-14.7,16-15,16-29.3,13.7c-9.1-1.6-17.6-5.9-23.4-11.4c-14.3-14.3-12.7-37.1,10.1-141.6
	c5.5-25.1,11.7-49.8,13.7-54.7c6.8-16.9-0.3-13.3-22.5,10.4c-25.1,27.4-38.7,49.5-62.5,102.6c-9.4,20.5-19.9,40-23.1,43
	c-8.8,7.8-28.3,3.9-38.4-7.5c-7.2-8.1-7.5-10.4-5.5-38.1c1.3-16.3,6.5-55.7,12-87.9c5.2-31.9,8.8-58.9,7.8-60.2
	c-2.3-2.3-14.3,11.1-57.3,62.5c-16,19.5-31.3,39.7-34.2,45.3c-2.6,5.2-9.4,30.9-14.7,57c-14,68.1-35.2,132.2-59.9,182
	c-37.1,73.6-61.2,93.4-123.7,102.6C1024.4,746.8,1016.2,746.8,1012,738.6L1012,738.6z M1096.3,675.8c16-8.5,36.5-34.5,50.8-64.8
	c16.3-33.9,38.1-103.9,36.8-115.9l-1-8.1l-10.1,10.4c-14.7,14.3-53.7,72.9-68.1,101.6c-13,26-27.7,65.8-27.7,75.5
	C1077.1,681.7,1083.9,682,1096.3,675.8L1096.3,675.8z M193.1,509.1c19.9-9.8,55.7-30,80.1-44.6c65.1-39.4,66.7-40.4,146.2-83.4
	c105.8-57.3,117.2-66.7,110.7-90.8c-3.6-14-21.2-31.9-33.5-34.5c-32.9-7.2-48.2-8.8-90.2-10.7c-32.2-1.3-54.7-0.7-68.1,2
	c-24.4,4.9-38.7,2.3-52.4-9.1c-22.1-18.2-12-33.9,37.4-59.3c71.6-37.1,115.6-67.1,115.6-78.5c0-10.4-13.3-22.1-30.9-27
	c-25.1-7.5-84.7-7.2-114,0.7c-22.1,5.9-22.8,6.2-26.4,18.9c-5.9,20.2-16.9,72-22.5,104.2c-7.5,43-39.4,144.9-63.5,201.5
	c-12,28.3-32.6,104.5-32.6,121.1c0,4.2,2,7.8,4.2,7.8S173.5,519.2,193.1,509.1L193.1,509.1z M2143.5,491.5c6.2-12,12.7-41,10.1-47.2
	c-3.9-10.1-44.3,11.4-44.3,23.8c0,5.5,21.8,33.2,26,33.2C2136.9,501.3,2140.5,497,2143.5,491.5z M1753.1,313.7
	c28-18.9,40.4-30.3,40.4-36.8c0-8.1-12.4-26.4-17.6-26.4c-6.5,0-24.4,23.1-38.7,49.8C1718.5,334.2,1720.5,335.9,1753.1,313.7z
	 M709.2,304.3c8.5-6.2,20.8-17.6,27.7-24.7c10.1-11.4,11.7-15,10.1-23.8c-2-10.4-13.3-22.5-19.2-20.5c-5.9,2-44.6,68.7-44.6,77.2
	C683.1,318.9,693.9,315.7,709.2,304.3L709.2,304.3z"/>
<path class="st0" d="M2048.7,232c1-6.8,2.9-32.9,3.9-58c1.3-28,3.6-46.6,5.9-47.9c2-1.3,9.4-2.6,16.6-2.6c36.5,0,50.8,14,44,43
	c-3.6,13.7-8.1,20.5-34.2,46.9c-16.6,16.9-32.2,30.6-34.2,30.6C2048.1,244,2047.4,240.1,2048.7,232L2048.7,232z"/>
</svg>
